<svg width="111" height="36" viewBox="0 0 111 36" fill="none" xmlns="http://www.w3.org/2000/svg">
<g clip-path="url(#clip0_201_42835)">
<g clip-path="url(#clip1_201_42835)">
<g clip-path="url(#clip2_201_42835)">
<path d="M21.75 10.25H2.25C1.14543 10.25 0.25 11.1454 0.25 12.25V23.75C0.25 24.8546 1.14543 25.75 2.25 25.75H21.75C22.8546 25.75 23.75 24.8546 23.75 23.75V12.25C23.75 11.1454 22.8546 10.25 21.75 10.25Z" fill="white" stroke="black" stroke-opacity="0.2" stroke-width="0.5"/>
<path d="M2.78773 15.9144C2.26459 15.6275 1.66754 15.3967 1 15.2366L1.028 15.1119H3.76498C4.13596 15.1249 4.43699 15.2365 4.53495 15.6307L5.12977 18.4666L5.31198 19.3207L6.97797 15.1119H8.77679L6.10288 21.2775H4.30397L2.78773 15.9144ZM10.1 21.2841H8.39883L9.46285 15.1119H11.1639L10.1 21.2841ZM16.2668 15.2628L16.0354 16.5956L15.8816 16.53C15.5737 16.4052 15.1674 16.2805 14.6144 16.2937C13.9427 16.2937 13.6415 16.5628 13.6345 16.8255C13.6345 17.1144 13.9989 17.3048 14.5939 17.5873C15.574 18.0272 16.0286 18.5656 16.0218 19.2682C16.0081 20.5486 14.846 21.3761 13.0611 21.3761C12.2979 21.3694 11.5628 21.2181 11.1638 21.0476L11.4019 19.662L11.6259 19.7607C12.1789 19.9907 12.5428 20.089 13.222 20.089C13.7118 20.089 14.2369 19.8984 14.2436 19.4849C14.2436 19.2157 14.0199 19.0185 13.3617 18.7165C12.7178 18.4209 11.8568 17.9285 11.8708 17.042C11.8781 15.8404 13.0611 15 14.741 15C15.399 15 15.9312 15.1379 16.2668 15.2628ZM18.5278 19.0975H19.9417C19.8718 18.7889 19.5496 17.3115 19.5496 17.3115L19.4307 16.7796C19.3467 17.0094 19.1999 17.3837 19.2069 17.3706C19.2069 17.3706 18.6678 18.7429 18.5278 19.0975ZM20.6276 15.1119L22 21.284H20.4249C20.4249 21.284 20.2708 20.5748 20.2219 20.3581H18.0378C17.9746 20.5222 17.6808 21.284 17.6808 21.284H15.8958L18.4226 15.624C18.5977 15.2234 18.906 15.1119 19.3118 15.1119H20.6276Z" fill="#1434CB"/>
</g>
</g>
</g>
<g clip-path="url(#clip3_201_42835)">
<g clip-path="url(#clip4_201_42835)">
<g clip-path="url(#clip5_201_42835)">
<path d="M50 10H30C28.8954 10 28 10.8954 28 12V24C28 25.1046 28.8954 26 30 26H50C51.1046 26 52 25.1046 52 24V12C52 10.8954 51.1046 10 50 10Z" fill="#252525"/>
<path d="M37 23C39.7614 23 42 20.7614 42 18C42 15.2386 39.7614 13 37 13C34.2386 13 32 15.2386 32 18C32 20.7614 34.2386 23 37 23Z" fill="#EB001B"/>
<path d="M43 23C45.7614 23 48 20.7614 48 18C48 15.2386 45.7614 13 43 13C40.2386 13 38 15.2386 38 18C38 20.7614 40.2386 23 43 23Z" fill="#F79E1B"/>
<path fill-rule="evenodd" clip-rule="evenodd" d="M40 13.9996C41.2144 14.9118 42 16.3642 42 18C42 19.6358 41.2144 21.0882 40 22.0004C38.7856 21.0882 38 19.6358 38 18C38 16.3642 38.7856 14.9118 40 13.9996Z" fill="#FF5F00"/>
</g>
</g>
</g>
<g clip-path="url(#clip6_201_42835)">
<g clip-path="url(#clip7_201_42835)">
<g clip-path="url(#clip8_201_42835)">
<path d="M78 10H58C56.8954 10 56 10.8954 56 12V24C56 25.1046 56.8954 26 58 26H78C79.1046 26 80 25.1046 80 24V12C80 10.8954 79.1046 10 78 10Z" fill="#016FD0"/>
<path fill-rule="evenodd" clip-rule="evenodd" d="M69.7637 23.3939V17.6925L79.9112 17.7016V19.2765L78.7383 20.5299L79.9112 21.7947V23.403H78.0386L77.0434 22.3049L76.0553 23.4072L69.7637 23.3939Z" fill="white"/>
<path fill-rule="evenodd" clip-rule="evenodd" d="M70.4414 22.7688V18.3199H74.2137V19.3448H71.6628V20.0405H74.1529V21.0483H71.6628V21.7316H74.2137V22.7688H70.4414Z" fill="#016FD0"/>
<path fill-rule="evenodd" clip-rule="evenodd" d="M74.1954 22.7688L76.2827 20.5418L74.1953 18.32H75.811L77.0865 19.73L78.3656 18.32H79.9117V18.355L77.8689 20.5418L79.9117 22.7057V22.7688H78.35L77.0519 21.3446L75.7671 22.7688H74.1954Z" fill="#016FD0"/>
<path fill-rule="evenodd" clip-rule="evenodd" d="M70.2369 12.632H72.6829L73.5421 14.5828V12.632H76.5619L77.0827 14.0935L77.6052 12.632H79.9111V18.3334H67.7246L70.2369 12.632Z" fill="white"/>
<path fill-rule="evenodd" clip-rule="evenodd" d="M70.7006 13.2514L68.7266 17.6965H70.0805L70.4529 16.8064H72.4708L72.843 17.6965H74.2306L72.2648 13.2514H70.7006ZM70.8702 15.8088L71.4622 14.3937L72.0538 15.8088H70.8702Z" fill="#016FD0"/>
<path fill-rule="evenodd" clip-rule="evenodd" d="M74.2129 17.6957V13.2507L76.116 13.2572L77.0953 15.9899L78.0809 13.2507H79.9125V17.6957L78.7339 17.7062V14.6528L77.6213 17.6957H76.5455L75.4099 14.6424V17.6957H74.2129Z" fill="#016FD0"/>
</g>
</g>
</g>
<g clip-path="url(#clip9_201_42835)">
<g clip-path="url(#clip10_201_42835)">
<g clip-path="url(#clip11_201_42835)">
<path d="M84.207 25.89H88.7249C89.7527 25.89 90.9838 24.6953 90.9838 23.7567V9.89001H86.466C85.4381 9.89001 84.207 11.0847 84.207 13.09V25.89Z" fill="#047AB1"/>
<path d="M86.7709 20.706C85.9036 20.7062 85.0405 20.5913 84.207 20.3647V19.1913C84.8538 19.569 85.5931 19.7822 86.353 19.81C87.2227 19.81 87.7084 19.234 87.7084 18.4447V15.2233H89.8544V18.4447C89.8544 19.7033 89.1541 20.706 86.7709 20.706Z" fill="white"/>
<path d="M92.1133 25.89H96.6311C97.659 25.89 98.8901 24.6953 98.8901 23.7567V9.89001H94.3722C93.3444 9.89001 92.1133 11.0847 92.1133 13.09V25.89Z" fill="#D42D06"/>
<path d="M92.1133 15.97C92.7684 15.3727 93.8978 14.9993 95.7276 15.0847C96.7215 15.1273 97.7606 15.4047 97.7606 15.4047V16.5887C97.1663 16.2492 96.4982 16.0413 95.8066 15.9807C94.4174 15.8633 93.5703 16.5993 93.5703 17.89C93.5703 19.1807 94.4174 19.9167 95.8066 19.81C96.4986 19.7439 97.1663 19.5326 97.7606 19.1913V20.3647C97.7606 20.3647 96.7215 20.6527 95.7276 20.6953C93.8978 20.7807 92.7684 20.4073 92.1133 19.81V15.97Z" fill="white"/>
<path d="M100.02 25.89H104.537C105.565 25.89 106.796 24.6953 106.796 23.7567V9.89001H102.278C101.251 9.89001 100.02 11.0847 100.02 13.09V25.89Z" fill="#67B637"/>
<path d="M105.667 19.17C105.667 20.0233 104.967 20.5567 104.029 20.5567H100.02V15.2233H103.668L103.927 15.234C104.752 15.2767 105.362 15.7353 105.362 16.5247C105.362 17.1433 104.944 17.6767 104.187 17.8047V17.8367C105.023 17.89 105.667 18.3913 105.667 19.17ZM102.787 16.066C102.738 16.0591 102.689 16.0556 102.64 16.0553H101.285V17.3993H102.787C103.069 17.3353 103.306 17.09 103.306 16.7273C103.306 16.3647 103.069 16.1193 102.787 16.066ZM102.956 18.242C102.896 18.2331 102.836 18.2296 102.775 18.2313H101.285V19.6927H102.775L102.956 19.6713C103.239 19.6073 103.476 19.33 103.476 18.9567C103.476 18.5833 103.25 18.3167 102.956 18.242Z" fill="white"/>
</g>
</g>
</g>
<defs>
<clipPath id="clip0_201_42835">
<rect width="24" height="16" fill="white" transform="translate(0 10)"/>
</clipPath>
<clipPath id="clip1_201_42835">
<rect width="24" height="16" fill="white" transform="translate(0 10)"/>
</clipPath>
<clipPath id="clip2_201_42835">
<rect width="24" height="16" fill="white" transform="translate(0 10)"/>
</clipPath>
<clipPath id="clip3_201_42835">
<rect width="24" height="16" fill="white" transform="translate(28 10)"/>
</clipPath>
<clipPath id="clip4_201_42835">
<rect width="24" height="16" fill="white" transform="translate(28 10)"/>
</clipPath>
<clipPath id="clip5_201_42835">
<rect width="24" height="16" fill="white" transform="translate(28 10)"/>
</clipPath>
<clipPath id="clip6_201_42835">
<rect width="24" height="16" fill="white" transform="translate(56 10)"/>
</clipPath>
<clipPath id="clip7_201_42835">
<rect width="24" height="16" fill="white" transform="translate(56 10)"/>
</clipPath>
<clipPath id="clip8_201_42835">
<rect width="24" height="16" fill="white" transform="translate(56 10)"/>
</clipPath>
<clipPath id="clip9_201_42835">
<rect width="23" height="16" fill="white" transform="translate(84 9.89001)"/>
</clipPath>
<clipPath id="clip10_201_42835">
<rect width="23" height="16" fill="white" transform="translate(84 9.89001)"/>
</clipPath>
<clipPath id="clip11_201_42835">
<rect width="23" height="16" fill="white" transform="translate(84 9.89001)"/>
</clipPath>
</defs>
</svg>
