<svg width="24" height="24" viewBox="0 0 24 24" fill="none" xmlns="http://www.w3.org/2000/svg">
<path d="M0 2.6998C0 2.20105 0.40125 1.7998 0.9 1.7998H2.59875C3.615 1.7998 4.485 2.5273 4.665 3.5248L4.68 3.5998H20.1562C20.9062 3.5998 21.4725 4.2823 21.3337 5.02105L20.1675 11.2423C19.9537 12.3786 18.9637 13.1998 17.8087 13.1998H6.42375L6.615 14.2611C6.69375 14.6886 7.065 14.9998 7.5 14.9998H17.1C17.5987 14.9998 18 15.4011 18 15.8998C18 16.3986 17.5987 16.7998 17.1 16.7998H7.50375C6.19875 16.7998 5.08125 15.8661 4.84875 14.5836L2.895 3.8473C2.86875 3.7048 2.745 3.5998 2.59875 3.5998H0.9C0.40125 3.5998 0 3.19855 0 2.6998ZM6 19.7998C6 18.8061 6.80625 17.9998 7.8 17.9998C8.79375 17.9998 9.6 18.8061 9.6 19.7998C9.6 20.7936 8.79375 21.5998 7.8 21.5998C6.80625 21.5998 6 20.7936 6 19.7998ZM14.4 19.7998C14.4 18.8061 15.2062 17.9998 16.2 17.9998C17.1937 17.9998 18 18.8061 18 19.7998C18 20.7936 17.1937 21.5998 16.2 21.5998C15.2062 21.5998 14.4 20.7936 14.4 19.7998ZM12.6 5.3398C12.1012 5.3398 11.7 5.74105 11.7 6.2398V7.4998H10.44C9.94125 7.4998 9.54 7.90105 9.54 8.3998C9.54 8.89855 9.94125 9.2998 10.44 9.2998H11.7V10.5598C11.7 11.0586 12.1012 11.4598 12.6 11.4598C13.0987 11.4598 13.5 11.0586 13.5 10.5598V9.2998H14.76C15.2587 9.2998 15.66 8.89855 15.66 8.3998C15.66 7.90105 15.2587 7.4998 14.76 7.4998H13.5V6.2398C13.5 5.74105 13.0987 5.3398 12.6 5.3398Z" fill="white"/>
</svg>
