<svg width="24" height="24" viewBox="0 0 24 24" fill="none" xmlns="http://www.w3.org/2000/svg">
<path d="M15.0015 19.5C12.9082 19.5 11.1346 18.7736 9.68075 17.3207C8.22692 15.8679 7.5 14.0948 7.5 12.0015C7.5 9.90817 8.22642 8.13458 9.67925 6.68075C11.1321 5.22692 12.9052 4.5 14.9985 4.5C17.0918 4.5 18.8654 5.22642 20.3193 6.67925C21.7731 8.13208 22.5 9.90517 22.5 11.9985C22.5 14.0918 21.7736 15.8654 20.3208 17.3193C18.8679 18.7731 17.0948 19.5 15.0015 19.5ZM7.16925 19.2038C5.47442 18.8863 4.10583 18.0422 3.0635 16.6715C2.02117 15.3007 1.5 13.7435 1.5 12C1.5 10.2565 2.02117 8.69933 3.0635 7.3285C4.10583 5.95783 5.47442 5.11375 7.16925 4.79625V6.06225C5.83842 6.40242 4.77025 7.128 3.96475 8.239C3.15925 9.35017 2.7565 10.6038 2.7565 12C2.7565 13.3962 3.15925 14.6498 3.96475 15.761C4.77025 16.872 5.83842 17.5976 7.16925 17.9378V19.2038ZM15 18.2435C16.723 18.2435 18.1943 17.6337 19.414 16.414C20.6337 15.1943 21.2435 13.723 21.2435 12C21.2435 10.277 20.6337 8.80567 19.414 7.586C18.1943 6.36633 16.723 5.7565 15 5.7565C13.277 5.7565 11.8057 6.36633 10.586 7.586C9.36633 8.80567 8.7565 10.277 8.7565 12C8.7565 13.723 9.36633 15.1943 10.586 16.414C11.8057 17.6337 13.277 18.2435 15 18.2435Z" fill="#001144"/>
</svg>
