<svg width="194" height="56" viewBox="0 0 194 56" fill="none" xmlns="http://www.w3.org/2000/svg">
<path d="M29.002 49.1455C30.4467 49.5764 31.5 50.9152 31.5 52.5C31.5 54.433 29.933 56 28 56C26.067 56 24.5 54.433 24.5 52.5C24.5 50.9138 25.5552 49.5742 27.002 49.1445V42.8232H29.002V49.1455Z" fill="#0044EE"/>
<path d="M12.5 51C13.3284 51 14 51.6716 14 52.5C14 53.3284 13.3284 54 12.5 54C11.6716 54 11 53.3284 11 52.5C11 51.6716 11.6716 51 12.5 51Z" fill="#0044EE"/>
<path d="M23.0605 32.9414C24.8798 32.9414 26.3545 34.4161 26.3545 36.2354C26.3545 38.0546 24.8798 39.5293 23.0605 39.5293C22.7695 39.5293 22.4875 39.4908 22.2188 39.4199L19.665 43.4326C20.1853 44.0435 20.5 44.8349 20.5 45.7002C20.4999 47.6331 18.9329 49.2002 17 49.2002C15.0671 49.2002 13.5001 47.6331 13.5 45.7002C13.5 43.7672 15.067 42.2002 17 42.2002C17.3432 42.2002 17.6748 42.2497 17.9883 42.3418L20.5312 38.3457C20.0538 37.7741 19.7666 37.0383 19.7666 36.2354C19.7666 36.1409 19.7705 36.0475 19.7783 35.9551C16.1135 35.0156 12.1986 36.0316 9.4541 38.624C9.79928 39.1664 10 39.8095 10 40.5C10 42.433 8.433 44 6.5 44C4.56715 43.9998 3 42.4329 3 40.5C3.00001 38.5671 4.56715 37.0002 6.5 37C7.01093 37 7.49599 37.1108 7.93359 37.3076C11.2512 34.0743 16.0854 32.8347 20.5596 34.0908C21.1637 33.3869 22.0602 32.9414 23.0605 32.9414Z" fill="#0044EE"/>
<path d="M37.2285 42.0859C37.4768 42.0301 37.7349 42 38 42C39.933 42 41.5 43.567 41.5 45.5C41.5 47.433 39.933 49 38 49C36.067 49 34.5 47.433 34.5 45.5C34.5 44.5541 34.8756 43.6963 35.4854 43.0664L32.0713 37.0371L33.8115 36.0508L37.2285 42.0859Z" fill="#0044EE"/>
<path d="M93.2646 35.5762L97.8926 24.7998H101.092L93.9883 40.1279L91.1084 46.3682H87.9082L91.6465 38.7031L85.668 24.7998H88.8682L93.2646 35.5762Z" fill="#0044EE"/>
<path d="M49.5 12C51.433 12 53 13.567 53 15.5C53 17.433 51.433 19 49.5 19C48.9539 19 48.4372 18.8745 47.9766 18.6514L40.6592 26.4922C40.8775 26.9488 41 27.4601 41 28C41 29.3208 40.2676 30.4695 39.1875 31.0654C39.9401 34.8283 42.739 37.8492 46.374 38.9258C46.9503 37.7837 48.1334 37.0001 49.5 37C51.433 37 53 38.567 53 40.5C53 42.433 51.433 44 49.5 44C47.7052 43.9998 46.2266 42.6487 46.0244 40.9082C41.5877 39.6839 38.1546 36.0424 37.2324 31.4883C35.4245 31.3515 34 29.8429 34 28C34 26.067 35.567 24.5 37.5 24.5C38.1628 24.5 38.7822 24.6848 39.3105 25.0049L46.5 17.3027C46.1829 16.7762 46 16.1594 46 15.5C46 13.5671 47.5672 12.0002 49.5 12Z" fill="#0044EE"/>
<path d="M77.4404 17.4717C78.8908 17.4717 80.1919 17.7601 81.3438 18.3359C82.4958 18.8906 83.4348 19.6266 84.1602 20.5439L82.1123 22.5918C81.451 21.8238 80.7358 21.2483 79.9678 20.8643C79.2211 20.4803 78.3573 20.2881 77.376 20.2881C76.1815 20.2881 75.2323 20.5547 74.5283 21.0879C73.8244 21.5998 73.4718 22.3252 73.4717 23.2637C73.4717 24.0103 73.6639 24.6186 74.0479 25.0879C74.4532 25.5359 74.9762 25.9202 75.6162 26.2402C76.256 26.5601 76.9598 26.8585 77.7275 27.1357C78.5169 27.3917 79.2965 27.68 80.0645 28C80.8322 28.3199 81.5359 28.7253 82.1758 29.2158C82.8157 29.7064 83.3279 30.3465 83.7119 31.1357C84.1172 31.9037 84.3203 32.8746 84.3203 34.0479C84.3203 36.0104 83.6377 37.5469 82.2725 38.6562C80.9285 39.7656 79.1038 40.3203 76.7998 40.3203C75.0507 40.3203 73.5575 40.0002 72.3203 39.3604C71.0831 38.7204 69.9844 37.792 69.0244 36.5762L71.0723 34.5283C71.7761 35.5094 72.5868 36.2556 73.5039 36.7676C74.4212 37.2582 75.5525 37.5039 76.8965 37.5039C78.2189 37.5038 79.2752 37.2156 80.0645 36.6396C80.8747 36.0638 81.2802 35.2747 81.2803 34.2725C81.2803 33.4405 81.0881 32.7679 80.7041 32.2559C80.3201 31.7439 79.7971 31.3278 79.1357 31.0078C78.4959 30.6666 77.7921 30.3682 77.0244 30.1123C76.2564 29.835 75.4877 29.5467 74.7197 29.248C73.9519 28.9281 73.2483 28.5436 72.6084 28.0957C71.9685 27.6264 71.4453 27.019 71.04 26.2725C70.656 25.5258 70.4639 24.5867 70.4639 23.4561C70.4639 22.1974 70.763 21.1305 71.3604 20.2559C71.979 19.36 72.8112 18.6773 73.8564 18.208C74.923 17.7175 76.1179 17.4717 77.4404 17.4717Z" fill="#0044EE"/>
<path fill-rule="evenodd" clip-rule="evenodd" d="M135.294 40H132.382V37.9209C131.858 38.6233 131.197 39.1889 130.398 39.6162C129.481 40.0855 128.446 40.3203 127.294 40.3203C125.886 40.3203 124.627 39.9786 123.518 39.2959C122.409 38.592 121.524 37.6426 120.862 36.4482C120.222 35.2536 119.902 33.9093 119.902 32.416C119.902 30.9227 120.222 29.5785 120.862 28.3838C121.524 27.1894 122.409 26.2401 123.518 25.5361C124.627 24.8321 125.886 24.4805 127.294 24.4805C128.425 24.4805 129.449 24.7252 130.366 25.2158C131.182 25.633 131.853 26.2024 132.382 26.9229V17.1523H135.294V40ZM127.742 27.2002C126.782 27.2002 125.939 27.4241 125.214 27.8721C124.489 28.32 123.913 28.9385 123.486 29.7275C123.081 30.4955 122.878 31.3812 122.878 32.3838C122.878 33.4077 123.081 34.3142 123.486 35.1035C123.913 35.8714 124.489 36.4797 125.214 36.9277C125.961 37.3757 126.814 37.5996 127.774 37.5996C128.734 37.5995 129.566 37.3756 130.27 36.9277C130.995 36.4797 131.56 35.8715 131.966 35.1035C132.371 34.3143 132.574 33.4185 132.574 32.416C132.574 31.3707 132.36 30.4643 131.934 29.6963C131.528 28.9284 130.964 28.3201 130.238 27.8721C129.534 27.4241 128.702 27.2002 127.742 27.2002Z" fill="#0044EE"/>
<path fill-rule="evenodd" clip-rule="evenodd" d="M146.335 24.4805C147.743 24.4805 148.98 24.8004 150.047 25.4404C151.135 26.0804 151.978 26.9651 152.575 28.0957C153.194 29.2262 153.503 30.5064 153.503 31.9355C153.503 32.1488 153.492 32.3838 153.471 32.6396C153.449 32.8742 153.407 33.1518 153.343 33.4717H141.44C141.542 34.0636 141.722 34.6075 141.983 35.1035C142.41 35.8928 143.017 36.512 143.807 36.96C144.596 37.3866 145.503 37.5996 146.527 37.5996C147.381 37.5996 148.159 37.451 148.863 37.1523C149.589 36.8537 150.207 36.4049 150.719 35.8076L152.575 37.6963C151.85 38.5496 150.953 39.2005 149.887 39.6484C148.842 40.0963 147.722 40.3203 146.527 40.3203C145.013 40.3203 143.647 39.9786 142.431 39.2959C141.215 38.5919 140.255 37.6428 139.551 36.4482C138.847 35.2536 138.495 33.8985 138.495 32.3838C138.495 30.8905 138.836 29.5462 139.519 28.3516C140.223 27.157 141.162 26.2188 142.335 25.5361C143.53 24.8321 144.863 24.4805 146.335 24.4805ZM146.271 27.1357C145.29 27.1357 144.425 27.3497 143.679 27.7764C142.932 28.203 142.356 28.8005 141.951 29.5684C141.712 30.0214 141.545 30.5228 141.447 31.0723H150.694C150.616 30.4432 150.454 29.8884 150.207 29.4082C149.844 28.6829 149.332 28.1281 148.671 27.7441C148.01 27.3389 147.21 27.1358 146.271 27.1357Z" fill="#0044EE"/>
<path d="M111.043 24.4805C112.195 24.4805 113.208 24.7678 114.083 25.3438C114.979 25.9197 115.682 26.6776 116.194 27.6162C116.706 28.5334 116.963 29.5144 116.963 30.5596V40H114.083V31.1357C114.083 29.984 113.72 29.0347 112.995 28.2881C112.27 27.5414 111.331 27.168 110.179 27.168C109.411 27.168 108.728 27.3384 108.131 27.6797C107.534 28.021 107.064 28.4906 106.723 29.0879C106.381 29.6852 106.211 30.3678 106.211 31.1357V40H103.331V24.7998H106.211V26.7637C106.672 26.1603 107.248 25.6659 107.938 25.2803C108.856 24.7469 109.891 24.4805 111.043 24.4805Z" fill="#0044EE"/>
<path d="M161.391 24.7998H165.135V27.4238H161.391V40H158.511V27.4238H154.767V24.7998H158.511V18.4316H161.391V24.7998Z" fill="#0044EE"/>
<path fill-rule="evenodd" clip-rule="evenodd" d="M187.155 40H183.892L181.897 34.9756H172.048L170.036 40H166.836L175.924 17.792H178.1L187.155 40ZM173.098 32.3516H180.855L176.993 22.6201L173.098 32.3516Z" fill="#0044EE"/>
<path d="M193.507 40H190.499V17.792H193.507V40Z" fill="#0044EE"/>
<path d="M28 0C29.933 0 31.5 1.567 31.5 3.5C31.5 4.80709 30.7824 5.94484 29.7207 6.5459C30.9997 14.0566 29.0698 20.521 24.7959 24.7949C20.522 29.0688 14.0575 30.9987 6.54688 29.7197C5.94599 30.782 4.80756 31.5 3.5 31.5C1.567 31.5 0 29.933 0 28C0 26.067 1.567 24.5 3.5 24.5C5.35419 24.5 6.86959 25.942 6.99023 27.7656C13.9298 28.9212 19.671 27.0917 23.3818 23.3809C23.5279 23.2348 23.6694 23.084 23.8096 22.9316L16.3779 9.88867C16.0974 9.9611 15.8031 10 15.5 10C13.5671 9.99983 12 8.43289 12 6.5C12 4.56711 13.5672 3.00017 15.5 3C17.433 3 19 4.56701 19 6.5C19 7.40644 18.6552 8.23188 18.0898 8.85352L25.1523 21.2461C27.6412 17.6199 28.7194 12.7131 27.7666 6.99023C25.9425 6.87006 24.5 5.35452 24.5 3.5C24.5 1.567 26.067 0 28 0Z" fill="#0044EE"/>
<path d="M14.5 19C15.3284 19 16 19.6716 16 20.5C16 21.3284 15.3284 22 14.5 22C13.6716 22 13 21.3284 13 20.5C13 19.6716 13.6716 19 14.5 19Z" fill="#0044EE"/>
<path d="M6.5 12C8.43299 12 10 13.567 10 15.5C10 17.433 8.433 19 6.5 19C4.56715 18.9998 3 17.4329 3 15.5C3.00001 13.5671 4.56715 12.0002 6.5 12Z" fill="#0044EE"/>
<path d="M41.5 4C42.3284 4 43 4.67157 43 5.5C43 6.32843 42.3284 7 41.5 7C40.6716 7 40 6.32843 40 5.5C40 4.67157 40.6716 4 41.5 4Z" fill="#0044EE"/>
</svg>
