<svg width="24" height="24" viewBox="0 0 24 24" fill="none" xmlns="http://www.w3.org/2000/svg">
<path d="M9.90911 21.5L9.48086 18.4808C9.16336 18.3731 8.82611 18.2182 8.46911 18.016C8.11194 17.8138 7.80111 17.5991 7.53661 17.3717L4.73211 18.618L2.63086 14.9295L5.12911 13.075C5.09911 12.9083 5.07761 12.7308 5.06461 12.5423C5.05161 12.3538 5.04511 12.1762 5.04511 12.0095C5.04511 11.8493 5.05161 11.6756 5.06461 11.4882C5.07761 11.3007 5.09911 11.113 5.12911 10.925L2.63086 9.064L4.73211 5.40125L7.52711 6.6315C7.81078 6.402 8.12561 6.18775 8.47161 5.98875C8.81761 5.78992 9.15086 5.639 9.47136 5.536L9.90911 2.5H14.0911L14.5194 5.52875C14.8647 5.65575 15.2004 5.81058 15.5266 5.99325C15.8529 6.17592 16.1556 6.38867 16.4346 6.6315L19.2744 5.40125L21.3694 9.064L18.8329 10.927C18.8755 11.1133 18.9013 11.297 18.9101 11.478C18.9188 11.6588 18.9231 11.8328 18.9231 12C18.9231 12.1607 18.9171 12.3298 18.9051 12.5075C18.8933 12.685 18.8674 12.8744 18.8276 13.0758L21.3514 14.9295L19.2501 18.618L16.4346 17.3623C16.1444 17.6024 15.8361 17.8215 15.5096 18.0195C15.1831 18.2177 14.853 18.3682 14.5194 18.4712L14.0911 21.5H9.90911ZM10.9526 20.2435H13.0296L13.3891 17.4905C13.9131 17.3572 14.3987 17.1615 14.8459 16.9035C15.2932 16.6457 15.7219 16.3169 16.1321 15.9173L18.7014 17.0193L19.6964 15.2718L17.4321 13.5898C17.5044 13.3059 17.5584 13.0352 17.5941 12.7775C17.6298 12.5198 17.6476 12.2607 17.6476 12C17.6476 11.7287 17.6314 11.4673 17.5991 11.216C17.5669 10.9647 17.5113 10.7025 17.4321 10.4295L19.7156 8.72825L18.7206 6.98075L16.1226 8.08775C15.7768 7.70525 15.3606 7.36792 14.8741 7.07575C14.3876 6.78342 13.8894 6.59467 13.3796 6.5095L13.0476 3.7565H10.9579L10.6271 6.5C10.0878 6.61367 9.59078 6.80108 9.13611 7.06225C8.68128 7.32325 8.25436 7.66017 7.85536 8.073L5.27961 6.98075L4.28461 8.72825L6.54561 10.3955C6.46911 10.6507 6.41253 10.9116 6.37586 11.1783C6.33903 11.4449 6.32061 11.722 6.32061 12.0095C6.32061 12.281 6.33903 12.5468 6.37586 12.807C6.41253 13.0673 6.46594 13.3282 6.53611 13.5898L4.28461 15.2718L5.27961 17.0193L7.84561 15.9218C8.23878 16.3226 8.66378 16.6525 9.12061 16.9115C9.57744 17.1705 10.0764 17.3667 10.6174 17.5L10.9526 20.2435ZM11.9846 14.8783C12.7851 14.8783 13.4649 14.5987 14.0241 14.0395C14.5833 13.4803 14.8629 12.8005 14.8629 12C14.8629 11.1995 14.5833 10.5197 14.0241 9.9605C13.4649 9.40133 12.7851 9.12175 11.9846 9.12175C11.1851 9.12175 10.5055 9.40133 9.94586 9.9605C9.38636 10.5197 9.10661 11.1995 9.10661 12C9.10661 12.8005 9.38636 13.4803 9.94586 14.0395C10.5055 14.5987 11.1851 14.8783 11.9846 14.8783Z" fill="#0044EE"/>
</svg>
