<svg width="18" height="18" viewBox="0 0 18 18" fill="none" xmlns="http://www.w3.org/2000/svg">
<path d="M2.06425 17.5C1.63442 17.5 1.26625 17.3468 0.95975 17.0403C0.65325 16.7337 0.5 16.3656 0.5 15.9358V2.06425C0.5 1.63442 0.65325 1.26625 0.95975 0.95975C1.26625 0.65325 1.63442 0.5 2.06425 0.5H8.99925V1.7565H2.06425C1.98725 1.7565 1.91667 1.7885 1.8525 1.8525C1.7885 1.91667 1.7565 1.98725 1.7565 2.06425V15.9358C1.7565 16.0127 1.7885 16.0833 1.8525 16.1475C1.91667 16.2115 1.98725 16.2435 2.06425 16.2435H8.99925V17.5H2.06425ZM13.5488 12.9615L12.6525 12.0628L15.0872 9.62825H6.09625V8.37175H15.0667L12.632 5.93725L13.5218 5.032L17.5 9.0135L13.5488 12.9615Z" fill="#001144"/>
</svg>
