<svg width="56" height="56" viewBox="0 0 56 56" fill="none" xmlns="http://www.w3.org/2000/svg">
<path d="M29.002 49.1455C30.4467 49.5764 31.5 50.9152 31.5 52.5C31.5 54.433 29.933 56 28 56C26.067 56 24.5 54.433 24.5 52.5C24.5 50.9138 25.5552 49.5742 27.002 49.1445V42.8232H29.002V49.1455Z" fill="#0044EE"/>
<path d="M12.5 51C13.3284 51 14 51.6716 14 52.5C14 53.3284 13.3284 54 12.5 54C11.6716 54 11 53.3284 11 52.5C11 51.6716 11.6716 51 12.5 51Z" fill="#0044EE"/>
<path d="M23.0605 32.9414C24.8798 32.9414 26.3545 34.4161 26.3545 36.2354C26.3545 38.0546 24.8798 39.5293 23.0605 39.5293C22.7695 39.5293 22.4875 39.4908 22.2188 39.4199L19.665 43.4326C20.1853 44.0435 20.5 44.8349 20.5 45.7002C20.4999 47.6331 18.9329 49.2002 17 49.2002C15.0671 49.2002 13.5001 47.6331 13.5 45.7002C13.5 43.7672 15.067 42.2002 17 42.2002C17.3432 42.2002 17.6748 42.2497 17.9883 42.3418L20.5312 38.3457C20.0538 37.7741 19.7666 37.0383 19.7666 36.2354C19.7666 36.1409 19.7705 36.0475 19.7783 35.9551C16.1135 35.0156 12.1986 36.0316 9.4541 38.624C9.79928 39.1664 10 39.8095 10 40.5C10 42.433 8.433 44 6.5 44C4.56715 43.9998 3 42.4329 3 40.5C3.00001 38.5671 4.56715 37.0002 6.5 37C7.01093 37 7.49599 37.1108 7.93359 37.3076C11.2512 34.0743 16.0854 32.8347 20.5596 34.0908C21.1637 33.3869 22.0602 32.9414 23.0605 32.9414Z" fill="#0044EE"/>
<path d="M37.2285 42.0859C37.4768 42.0301 37.7349 42 38 42C39.933 42 41.5 43.567 41.5 45.5C41.5 47.433 39.933 49 38 49C36.067 49 34.5 47.433 34.5 45.5C34.5 44.5541 34.8756 43.6963 35.4854 43.0664L32.0713 37.0371L33.8115 36.0508L37.2285 42.0859Z" fill="#0044EE"/>
<path d="M49.5 12C51.433 12 53 13.567 53 15.5C53 17.433 51.433 19 49.5 19C48.9539 19 48.4372 18.8745 47.9766 18.6514L40.6592 26.4922C40.8775 26.9488 41 27.4601 41 28C41 29.3208 40.2676 30.4695 39.1875 31.0654C39.9401 34.8283 42.739 37.8492 46.374 38.9258C46.9503 37.7837 48.1334 37.0001 49.5 37C51.433 37 53 38.567 53 40.5C53 42.433 51.433 44 49.5 44C47.7052 43.9998 46.2266 42.6487 46.0244 40.9082C41.5877 39.6839 38.1546 36.0424 37.2324 31.4883C35.4245 31.3515 34 29.8429 34 28C34 26.067 35.567 24.5 37.5 24.5C38.1628 24.5 38.7822 24.6848 39.3105 25.0049L46.5 17.3027C46.1829 16.7762 46 16.1594 46 15.5C46 13.5671 47.5672 12.0002 49.5 12Z" fill="#0044EE"/>
<path d="M28 0C29.933 0 31.5 1.567 31.5 3.5C31.5 4.80709 30.7824 5.94484 29.7207 6.5459C30.9997 14.0566 29.0698 20.521 24.7959 24.7949C20.522 29.0688 14.0575 30.9987 6.54688 29.7197C5.94599 30.782 4.80756 31.5 3.5 31.5C1.567 31.5 0 29.933 0 28C0 26.067 1.567 24.5 3.5 24.5C5.35419 24.5 6.86959 25.942 6.99023 27.7656C13.9298 28.9212 19.671 27.0917 23.3818 23.3809C23.5279 23.2348 23.6694 23.084 23.8096 22.9316L16.3779 9.88867C16.0974 9.9611 15.8031 10 15.5 10C13.5671 9.99983 12 8.43289 12 6.5C12 4.56711 13.5672 3.00017 15.5 3C17.433 3 19 4.56701 19 6.5C19 7.40644 18.6552 8.23188 18.0898 8.85352L25.1523 21.2461C27.6412 17.6199 28.7194 12.7131 27.7666 6.99023C25.9425 6.87006 24.5 5.35452 24.5 3.5C24.5 1.567 26.067 0 28 0Z" fill="#0044EE"/>
<path d="M14.5 19C15.3284 19 16 19.6716 16 20.5C16 21.3284 15.3284 22 14.5 22C13.6716 22 13 21.3284 13 20.5C13 19.6716 13.6716 19 14.5 19Z" fill="#0044EE"/>
<path d="M6.5 12C8.43299 12 10 13.567 10 15.5C10 17.433 8.433 19 6.5 19C4.56715 18.9998 3 17.4329 3 15.5C3.00001 13.5671 4.56715 12.0002 6.5 12Z" fill="#0044EE"/>
<path d="M41.5 4C42.3284 4 43 4.67157 43 5.5C43 6.32843 42.3284 7 41.5 7C40.6716 7 40 6.32843 40 5.5C40 4.67157 40.6716 4 41.5 4Z" fill="#0044EE"/>
</svg>
